<?xml version="1.0" encoding="UTF-8"?>
<svg width="234px" height="37px" viewBox="0 0 234 37" version="1.1" xmlns="http://www.w3.org/2000/svg" xmlns:xlink="http://www.w3.org/1999/xlink">
    <!-- Generator: Sketch 59.1 (86144) - https://sketch.com -->
    <title>Stars</title>
    <desc>Created with Sketch.</desc>
    <g id="Page-1" stroke="none" stroke-width="1" fill="none" fill-rule="evenodd">
        <g id="Artboard" transform="translate(-59.000000, -388.000000)">
            <g id="Message-Box" transform="translate(25.000000, 357.000000)">
                <g id="Stars" transform="translate(34.000000, 31.000000)">
                    <path d="M19.3446423,32.153526 C19.3446423,32.153526 10.3383142,38.6840701 7.44402802,36.5836956 C4.54974186,34.4833211 7.98478719,23.9097142 7.98478719,23.9097142 C7.98478719,23.9097142 -0.983351126,17.2703794 0.0890439155,13.9737283 C1.16143896,10.6770771 12.3238657,10.5709466 12.3238657,10.5709466 C12.3238657,10.5709466 15.834254,1.90556964e-15 19.3446423,0 C22.8550306,-1.02662009e-15 26.3654188,10.5709466 26.3654188,10.5709466 C26.3654188,10.5709466 37.5038199,10.6032197 38.6002406,13.9737283 C39.6966614,17.3442369 30.7044974,23.9097142 30.7044974,23.9097142 C30.7044974,23.9097142 34.0852203,34.5227426 31.2452565,36.5836956 C28.4052928,38.6446485 19.3446423,32.153526 19.3446423,32.153526 Z" id="Star-Y" fill="#FFCE67"></path>
                    <path d="M68.3446423,32.153526 C68.3446423,32.153526 59.3383142,38.6840701 56.444028,36.5836956 C53.5497419,34.4833211 56.9847872,23.9097142 56.9847872,23.9097142 C56.9847872,23.9097142 48.0166489,17.2703794 49.0890439,13.9737283 C50.161439,10.6770771 61.3238657,10.5709466 61.3238657,10.5709466 C61.3238657,10.5709466 64.834254,1.90556964e-15 68.3446423,0 C71.8550306,-1.02662009e-15 75.3654188,10.5709466 75.3654188,10.5709466 C75.3654188,10.5709466 86.5038199,10.6032197 87.6002406,13.9737283 C88.6966614,17.3442369 79.7044974,23.9097142 79.7044974,23.9097142 C79.7044974,23.9097142 83.0852203,34.5227426 80.2452565,36.5836956 C77.4052928,38.6446485 68.3446423,32.153526 68.3446423,32.153526 Z" id="Star-Y" fill="#FFCE67"></path>
                    <path d="M116.344642,32.153526 C116.344642,32.153526 107.338314,38.6840701 104.444028,36.5836956 C101.549742,34.4833211 104.984787,23.9097142 104.984787,23.9097142 C104.984787,23.9097142 96.0166489,17.2703794 97.0890439,13.9737283 C98.161439,10.6770771 109.323866,10.5709466 109.323866,10.5709466 C109.323866,10.5709466 112.834254,1.90556964e-15 116.344642,0 C119.855031,-1.02662009e-15 123.365419,10.5709466 123.365419,10.5709466 C123.365419,10.5709466 134.50382,10.6032197 135.600241,13.9737283 C136.696661,17.3442369 127.704497,23.9097142 127.704497,23.9097142 C127.704497,23.9097142 131.08522,34.5227426 128.245257,36.5836956 C125.405293,38.6446485 116.344642,32.153526 116.344642,32.153526 Z" id="Star-Y" fill="#FFCE67"></path>
                    <path d="M165.344642,32.153526 C165.344642,32.153526 156.338314,38.6840701 153.444028,36.5836956 C150.549742,34.4833211 153.984787,23.9097142 153.984787,23.9097142 C153.984787,23.9097142 145.016649,17.2703794 146.089044,13.9737283 C147.161439,10.6770771 158.323866,10.5709466 158.323866,10.5709466 C158.323866,10.5709466 161.834254,1.90556964e-15 165.344642,0 C168.855031,-1.02662009e-15 172.365419,10.5709466 172.365419,10.5709466 C172.365419,10.5709466 183.50382,10.6032197 184.600241,13.9737283 C185.696661,17.3442369 176.704497,23.9097142 176.704497,23.9097142 C176.704497,23.9097142 180.08522,34.5227426 177.245257,36.5836956 C174.405293,38.6446485 165.344642,32.153526 165.344642,32.153526 Z" id="Star-Y" fill="#FFCE67"></path>
                    <path d="M214.344642,32.153526 C214.344642,32.153526 205.338314,38.6840701 202.444028,36.5836956 C199.549742,34.4833211 202.984787,23.9097142 202.984787,23.9097142 C202.984787,23.9097142 194.016649,17.2703794 195.089044,13.9737283 C196.161439,10.6770771 207.323866,10.5709466 207.323866,10.5709466 C207.323866,10.5709466 210.834254,1.90556964e-15 214.344642,0 C217.855031,-1.02662009e-15 221.365419,10.5709466 221.365419,10.5709466 C221.365419,10.5709466 232.50382,10.6032197 233.600241,13.9737283 C234.696661,17.3442369 225.704497,23.9097142 225.704497,23.9097142 C225.704497,23.9097142 229.08522,34.5227426 226.245257,36.5836956 C223.405293,38.6446485 214.344642,32.153526 214.344642,32.153526 Z" id="Star-N" fill="#CECECE"></path>
                </g>
            </g>
        </g>
    </g>
</svg>